<svg width="185" height="41" viewBox="0 0 185 41" fill="none" xmlns="http://www.w3.org/2000/svg">
<path d="M0 12.3535C0 10.6934 0.292969 9.09017 0.878906 7.54395C1.46484 5.99772 2.27865 4.67936 3.32031 3.58887C4.36198 2.4821 5.59082 1.61133 7.00684 0.976562C8.43913 0.341797 9.98535 0.0244141 11.6455 0.0244141C13.3057 0.0244141 14.8682 0.341797 16.333 0.976562C17.7979 1.61133 19.0755 2.4821 20.166 3.58887C21.2565 4.67936 22.1191 5.99772 22.7539 7.54395C23.3887 9.09017 23.7061 10.6934 23.7061 12.3535C23.7061 14.0137 23.3887 15.5843 22.7539 17.0654C22.1191 18.5303 21.2565 19.8079 20.166 20.8984C19.0755 21.9889 17.7979 22.8516 16.333 23.4863C14.8682 24.1211 13.3057 24.4385 11.6455 24.4385C10.4248 24.4385 9.3099 24.235 8.30078 23.8281C7.30794 23.4049 6.39648 22.8516 5.56641 22.168L5.46875 29.4922C5.45247 30.2897 5.20833 30.9652 4.73633 31.5186C4.26432 32.0557 3.61328 32.3242 2.7832 32.3242C2.39258 32.3242 2.02637 32.251 1.68457 32.1045C1.35905 31.958 1.06608 31.7627 0.805664 31.5186C0.561523 31.2581 0.366211 30.957 0.219727 30.6152C0.0732422 30.2572 0 29.8828 0 29.4922V12.3535ZM11.8408 18.8477C12.736 18.8477 13.5824 18.6768 14.3799 18.335C15.1774 17.9769 15.8773 17.5049 16.4795 16.9189C17.0817 16.3167 17.5618 15.6169 17.9199 14.8193C18.278 14.0055 18.457 13.1429 18.457 12.2314C18.457 11.3363 18.278 10.4655 17.9199 9.61914C17.5618 8.75651 17.0817 8.0485 16.4795 7.49512C15.8773 6.92546 15.1774 6.486 14.3799 6.17676C13.5824 5.85124 12.736 5.68848 11.8408 5.68848C10.9456 5.68848 10.1074 5.85938 9.32617 6.20117C8.54492 6.54297 7.86133 7.00684 7.27539 7.59277C6.68945 8.17871 6.22559 8.903 5.88379 9.76562C5.55827 10.6283 5.39551 11.5072 5.39551 12.4023C5.39551 13.2975 5.55827 14.1357 5.88379 14.917C6.22559 15.6982 6.68945 16.3818 7.27539 16.9678C7.86133 17.5537 8.54492 18.0176 9.32617 18.3594C10.1074 18.6849 10.9456 18.8477 11.8408 18.8477Z" fill="#09003E"/>
<path d="M31.9336 23.0469C32.1452 23.6654 32.4463 24.235 32.8369 24.7559C33.2275 25.2767 33.6751 25.7243 34.1797 26.0986C34.7005 26.473 35.2702 26.766 35.8887 26.9775C36.5234 27.1891 37.1826 27.2949 37.8662 27.2949C38.5986 27.2949 39.2008 27.238 39.6729 27.124C40.1449 26.9938 40.5924 26.7985 41.0156 26.5381C41.6016 26.1963 42.1305 26.0254 42.6025 26.0254C42.9769 26.0254 43.3268 26.1068 43.6523 26.2695C43.9779 26.416 44.2546 26.6195 44.4824 26.8799C44.7266 27.1403 44.9137 27.4414 45.0439 27.7832C45.1904 28.125 45.2637 28.4749 45.2637 28.833C45.2637 29.3864 45.0846 29.891 44.7266 30.3467C44.3685 30.8024 43.8639 31.193 43.2129 31.5186C42.5618 31.8278 41.7806 32.0638 40.8691 32.2266C39.9577 32.4056 38.9567 32.4951 37.8662 32.4951C36.2223 32.4951 34.668 32.1859 33.2031 31.5674C31.7546 30.9326 30.485 30.0781 29.3945 29.0039C28.304 27.9297 27.4414 26.6764 26.8066 25.2441C26.1882 23.7956 25.8789 22.2493 25.8789 20.6055C25.8789 18.9453 26.1882 17.391 26.8066 15.9424C27.4414 14.4938 28.304 13.2324 29.3945 12.1582C30.485 11.084 31.7546 10.2376 33.2031 9.61914C34.668 8.98438 36.2223 8.66699 37.8662 8.66699C39.4938 8.66699 41.0238 8.97624 42.4561 9.59473C43.9046 10.2132 45.166 11.0514 46.2402 12.1094C47.3307 13.1673 48.1934 14.4206 48.8281 15.8691C49.4792 17.3014 49.821 18.8314 49.8535 20.459C49.8535 21.2402 49.6012 21.8669 49.0967 22.3389C48.6084 22.8109 47.9736 23.0469 47.1924 23.0469H31.9336ZM44.2871 18.5059C44.0918 17.8223 43.7907 17.1956 43.3838 16.626C42.9932 16.0563 42.5212 15.568 41.9678 15.1611C41.4307 14.738 40.8203 14.4124 40.1367 14.1846C39.4531 13.9567 38.7288 13.8428 37.9639 13.8428C37.1989 13.8428 36.4746 13.9648 35.791 14.209C35.1237 14.4531 34.5215 14.7868 33.9844 15.21C33.4473 15.6169 32.9834 16.1051 32.5928 16.6748C32.2184 17.2445 31.9417 17.8548 31.7627 18.5059H44.2871Z" fill="#09003E"/>
<path d="M52.71 4.32129C52.71 3.93066 52.7832 3.57259 52.9297 3.24707C53.0762 2.90527 53.2715 2.6123 53.5156 2.36816C53.776 2.12402 54.069 1.92871 54.3945 1.78223C54.7201 1.63574 55.07 1.5625 55.4443 1.5625C55.8187 1.5625 56.1768 1.63574 56.5186 1.78223C56.8604 1.91243 57.1615 2.10775 57.4219 2.36816C57.6823 2.6123 57.8857 2.90527 58.0322 3.24707C58.195 3.57259 58.2764 3.93066 58.2764 4.32129V8.25195H66.8457C67.2201 8.25195 67.57 8.3252 67.8955 8.47168C68.2373 8.61816 68.5303 8.81348 68.7744 9.05762C69.0186 9.30176 69.2139 9.59473 69.3604 9.93652C69.5068 10.262 69.5801 10.612 69.5801 10.9863C69.5801 11.3444 69.5068 11.6862 69.3604 12.0117C69.2139 12.321 69.0186 12.5977 68.7744 12.8418C68.5303 13.0697 68.2373 13.2568 67.8955 13.4033C67.57 13.5335 67.2201 13.5986 66.8457 13.5986H58.2764V20.7275C58.2764 21.6227 58.4391 22.4609 58.7646 23.2422C59.0902 24.0072 59.5378 24.6826 60.1074 25.2686C60.6771 25.8382 61.3444 26.2858 62.1094 26.6113C62.8906 26.9368 63.737 27.0996 64.6484 27.0996C65.446 27.0996 66.1865 26.9857 66.8701 26.7578C67.5537 26.5299 68.1885 26.1637 68.7744 25.6592C69.0999 25.3825 69.4173 25.1628 69.7266 25C70.0358 24.821 70.402 24.7314 70.8252 24.7314C71.1344 24.7314 71.4355 24.7965 71.7285 24.9268C72.0215 25.057 72.2819 25.2441 72.5098 25.4883C72.7376 25.7161 72.9167 25.9928 73.0469 26.3184C73.1934 26.6276 73.2666 26.9613 73.2666 27.3193C73.2666 27.7425 73.1852 28.1494 73.0225 28.54C72.8597 28.9307 72.6156 29.2806 72.29 29.5898C71.2646 30.5664 70.1009 31.2988 68.7988 31.7871C67.513 32.2754 66.1296 32.5195 64.6484 32.5195C62.9883 32.5195 61.4339 32.2184 59.9854 31.6162C58.5368 30.9977 57.2754 30.1595 56.2012 29.1016C55.127 28.0273 54.2725 26.7741 53.6377 25.3418C53.0192 23.8932 52.71 22.3389 52.71 20.6787V4.32129Z" fill="#09003E"/>
<path d="M76.001 20.6055C76.001 18.9616 76.3102 17.4154 76.9287 15.9668C77.5635 14.5182 78.4261 13.2568 79.5166 12.1826C80.6071 11.0921 81.8685 10.2376 83.3008 9.61914C84.7494 8.98438 86.2956 8.66699 87.9395 8.66699C89.5671 8.66699 91.1051 8.98438 92.5537 9.61914C94.0023 10.2376 95.2637 11.0921 96.3379 12.1826C97.4121 13.2568 98.2585 14.5182 98.877 15.9668C99.5117 17.4154 99.8291 18.9616 99.8291 20.6055C99.8291 22.2493 99.5117 23.7956 98.877 25.2441C98.2585 26.6764 97.4121 27.9297 96.3379 29.0039C95.2637 30.0781 94.0023 30.9326 92.5537 31.5674C91.1051 32.1859 89.5671 32.4951 87.9395 32.4951C86.7188 32.4951 85.5631 32.3242 84.4727 31.9824C83.3822 31.6406 82.3649 31.1605 81.4209 30.542V37.8418C81.4209 38.6393 81.1849 39.3066 80.7129 39.8438C80.2409 40.3971 79.5898 40.6738 78.7598 40.6738C78.3854 40.6738 78.0273 40.6006 77.6855 40.4541C77.36 40.3076 77.0671 40.1042 76.8066 39.8438C76.5625 39.5996 76.3672 39.2985 76.2207 38.9404C76.0742 38.5986 76.001 38.2324 76.001 37.8418V20.6055ZM81.4453 20.6055C81.4453 21.5007 81.6162 22.3389 81.958 23.1201C82.2998 23.9014 82.7637 24.585 83.3496 25.1709C83.9355 25.7568 84.6191 26.2207 85.4004 26.5625C86.1979 26.9043 87.0443 27.0752 87.9395 27.0752C88.8346 27.0752 89.6729 26.9043 90.4541 26.5625C91.2516 26.2207 91.9434 25.7568 92.5293 25.1709C93.1152 24.585 93.571 23.9014 93.8965 23.1201C94.2383 22.3389 94.4092 21.5007 94.4092 20.6055C94.4092 19.7103 94.2383 18.8721 93.8965 18.0908C93.571 17.3096 93.1152 16.626 92.5293 16.04C91.9434 15.4541 91.2516 14.9984 90.4541 14.6729C89.6729 14.3311 88.8346 14.1602 87.9395 14.1602C87.0443 14.1602 86.1979 14.3311 85.4004 14.6729C84.6191 14.9984 83.9355 15.4541 83.3496 16.04C82.7637 16.626 82.2998 17.3096 81.958 18.0908C81.6162 18.8721 81.4453 19.7103 81.4453 20.6055Z" fill="#09003E"/>
<path d="M113.916 32.4951C112.288 32.4951 110.75 32.1859 109.302 31.5674C107.869 30.9326 106.616 30.0781 105.542 29.0039C104.468 27.9297 103.613 26.6764 102.979 25.2441C102.36 23.7956 102.051 22.2493 102.051 20.6055C102.051 18.9616 102.36 17.4154 102.979 15.9668C103.613 14.5182 104.468 13.2568 105.542 12.1826C106.616 11.0921 107.869 10.2376 109.302 9.61914C110.75 8.98438 112.288 8.66699 113.916 8.66699C115.56 8.66699 117.098 8.98438 118.53 9.61914C119.979 10.2376 121.24 11.0921 122.314 12.1826C123.389 13.2568 124.235 14.5182 124.854 15.9668C125.472 17.4154 125.781 18.9616 125.781 20.6055V29.6631C125.781 30.0537 125.708 30.4199 125.562 30.7617C125.415 31.0872 125.22 31.3802 124.976 31.6406C124.731 31.8848 124.438 32.0801 124.097 32.2266C123.771 32.373 123.413 32.4463 123.022 32.4463C122.371 32.4463 121.818 32.2673 121.362 31.9092C120.923 31.5511 120.622 31.0872 120.459 30.5176C119.515 31.1361 118.49 31.6243 117.383 31.9824C116.292 32.3242 115.137 32.4951 113.916 32.4951ZM113.916 27.0752C114.811 27.0752 115.649 26.9043 116.431 26.5625C117.228 26.2207 117.912 25.7568 118.481 25.1709C119.067 24.585 119.523 23.9014 119.849 23.1201C120.19 22.3389 120.361 21.5007 120.361 20.6055C120.361 19.7103 120.19 18.8721 119.849 18.0908C119.523 17.3096 119.067 16.626 118.481 16.04C117.912 15.4541 117.228 14.9984 116.431 14.6729C115.649 14.3311 114.811 14.1602 113.916 14.1602C113.037 14.1602 112.207 14.3311 111.426 14.6729C110.645 14.9984 109.961 15.4541 109.375 16.04C108.789 16.626 108.325 17.3096 107.983 18.0908C107.658 18.8721 107.495 19.7103 107.495 20.6055C107.495 21.5007 107.658 22.3389 107.983 23.1201C108.325 23.9014 108.781 24.585 109.351 25.1709C109.937 25.7568 110.62 26.2207 111.401 26.5625C112.183 26.9043 113.021 27.0752 113.916 27.0752Z" fill="#09003E"/>
<path d="M154.858 15.7471C155.249 15.7471 155.607 15.8203 155.933 15.9668C156.274 16.097 156.567 16.2842 156.812 16.5283C157.072 16.7562 157.275 17.0329 157.422 17.3584C157.568 17.6839 157.642 18.042 157.642 18.4326V25.9033C157.642 26.3265 157.552 26.7008 157.373 27.0264C157.21 27.3519 156.999 27.653 156.738 27.9297C154.867 29.5898 152.938 30.7699 150.952 31.4697C148.983 32.1696 146.94 32.5195 144.824 32.5195C143.392 32.5195 142 32.3242 140.649 31.9336C139.315 31.543 138.053 30.9977 136.865 30.2979C135.693 29.598 134.611 28.7598 133.618 27.7832C132.642 26.7904 131.803 25.6917 131.104 24.4873C130.404 23.2829 129.858 21.9889 129.468 20.6055C129.077 19.222 128.882 17.7897 128.882 16.3086C128.882 14.0951 129.297 12.0036 130.127 10.0342C130.957 8.0485 132.096 6.3151 133.545 4.83398C134.993 3.35286 136.694 2.18099 138.647 1.31836C140.601 0.439453 142.708 0 144.971 0C149.463 0 153.345 1.61133 156.616 4.83398C156.893 5.11068 157.096 5.41178 157.227 5.7373C157.357 6.06283 157.422 6.38835 157.422 6.71387C157.422 7.05566 157.349 7.38932 157.202 7.71484C157.056 8.04036 156.852 8.33333 156.592 8.59375C156.348 8.83789 156.055 9.0332 155.713 9.17969C155.387 9.32617 155.037 9.39941 154.663 9.39941C154.321 9.39941 153.988 9.34245 153.662 9.22852C153.337 9.09831 153.052 8.903 152.808 8.64258C151.717 7.56836 150.505 6.77083 149.17 6.25C147.852 5.72917 146.476 5.46875 145.044 5.46875C143.595 5.46875 142.22 5.74544 140.918 6.29883C139.616 6.85221 138.477 7.61719 137.5 8.59375C136.523 9.55404 135.742 10.6934 135.156 12.0117C134.587 13.3301 134.302 14.7542 134.302 16.2842C134.302 17.749 134.578 19.1406 135.132 20.459C135.685 21.7611 136.442 22.9085 137.402 23.9014C138.379 24.8779 139.526 25.6592 140.845 26.2451C142.163 26.8148 143.587 27.0996 145.117 27.0996C146.403 27.0996 147.632 26.9206 148.804 26.5625C149.976 26.2044 151.099 25.5859 152.173 24.707V21.1426H148.389C148.014 21.1426 147.664 21.0693 147.339 20.9229C147.013 20.7764 146.729 20.5811 146.484 20.3369C146.257 20.0928 146.069 19.8079 145.923 19.4824C145.793 19.1569 145.728 18.807 145.728 18.4326C145.728 18.0745 145.793 17.7327 145.923 17.4072C146.069 17.0654 146.257 16.7725 146.484 16.5283C146.729 16.2679 147.013 16.0645 147.339 15.918C147.664 15.7715 148.014 15.6982 148.389 15.6982L154.858 15.7471Z" fill="#6E60F6"/>
<path d="M166.089 20.6055C166.089 21.5007 166.26 22.3389 166.602 23.1201C166.943 23.9014 167.407 24.585 167.993 25.1709C168.579 25.7568 169.263 26.2207 170.044 26.5625C170.825 26.9043 171.663 27.0752 172.559 27.0752C173.47 27.0752 174.316 26.9043 175.098 26.5625C175.895 26.2207 176.587 25.7568 177.173 25.1709C177.759 24.585 178.215 23.9014 178.54 23.1201C178.882 22.3389 179.053 21.5007 179.053 20.6055C179.053 19.7103 178.882 18.8721 178.54 18.0908C178.198 17.3096 177.734 16.626 177.148 16.04C176.562 15.4541 175.871 14.9984 175.073 14.6729C174.292 14.3311 173.454 14.1602 172.559 14.1602C171.68 14.1602 170.841 14.3311 170.044 14.6729C169.263 14.9984 168.579 15.4541 167.993 16.04C167.407 16.626 166.943 17.3096 166.602 18.0908C166.26 18.8721 166.089 19.7103 166.089 20.6055ZM160.645 20.6055C160.645 18.9616 160.954 17.4154 161.572 15.9668C162.207 14.5182 163.062 13.2568 164.136 12.1826C165.226 11.0921 166.488 10.2376 167.92 9.61914C169.368 8.98438 170.915 8.66699 172.559 8.66699C174.202 8.66699 175.749 8.98438 177.197 9.61914C178.646 10.2376 179.907 11.0921 180.981 12.1826C182.056 13.2568 182.902 14.5182 183.521 15.9668C184.155 17.4154 184.473 18.9616 184.473 20.6055C184.473 22.2493 184.155 23.7956 183.521 25.2441C182.902 26.6764 182.056 27.9297 180.981 29.0039C179.907 30.0781 178.646 30.9326 177.197 31.5674C175.749 32.1859 174.202 32.4951 172.559 32.4951C170.915 32.4951 169.368 32.1859 167.92 31.5674C166.488 30.9326 165.226 30.0781 164.136 29.0039C163.062 27.9297 162.207 26.6764 161.572 25.2441C160.954 23.7956 160.645 22.2493 160.645 20.6055Z" fill="#6E60F6"/>
</svg>
